  <svg width="640" height="655" viewBox="0 0 640 655" fill="none" xmlns="http://www.w3.org/2000/svg">
                <g filter="url(#filter0_d_1772_1986)">
                <path d="M569.978 243.661C590.041 216.485 585.383 177.926 558.979 156.379C532.576 134.831 494.182 138.256 471.976 163.683L471.958 163.668L266.553 350.929C251.152 364.967 240.469 383.49 235.982 403.929L218.368 484.117L311.692 560.278L385.407 523.613C402.7 515.012 417.155 501.565 427.039 484.885L569.984 243.661L569.978 243.661Z" fill="url(#paint0_linear_1772_1986)"/>
                </g>
                <path d="M550.767 166.61C529.33 149.115 497.902 152.419 480.57 173.989C470.677 186.301 467.519 201.901 470.615 216.277C470.67 216.538 470.731 216.8 470.794 217.058L518.434 255.937C518.7 255.943 518.966 255.948 519.229 255.951C533.828 256.011 548.312 249.654 558.203 237.345C575.534 215.775 572.206 184.107 550.77 166.612L550.767 166.61Z" fill="#1E321B"/>
                <path d="M518.397 255.946C518.663 255.952 518.929 255.957 519.192 255.96C516.867 245.153 511.008 235.035 501.812 227.53C492.615 220.026 481.576 216.354 470.603 216.309C470.658 216.571 470.719 216.832 470.782 217.09L518.4 255.949L518.397 255.946Z" fill="#FBD835"/>
                <defs>
                <filter id="filter0_d_1772_1986" x="0.473839" y="0.849331" width="599.59" height="653.653" filterUnits="userSpaceOnUse" color-interpolation-filters="sRGB">
                <feFlood flood-opacity="0" result="BackgroundImageFix"/>
                <feColorMatrix in="SourceAlpha" type="matrix" values="0 0 0 0 0 0 0 0 0 0 0 0 0 0 0 0 0 0 127 0" result="hardAlpha"/>
                <feOffset dx="-100.113" dy="-23.5561"/>
                <feGaussianBlur stdDeviation="58.8903"/>
                <feColorMatrix type="matrix" values="0 0 0 0 0.176471 0 0 0 0 0.0823529 0 0 0 0 0.286275 0 0 0 0.3 0"/>
                <feBlend mode="normal" in2="BackgroundImageFix" result="effect1_dropShadow_1772_1986"/>
                <feBlend mode="normal" in="SourceGraphic" in2="effect1_dropShadow_1772_1986" result="shape"/>
                </filter>
                <linearGradient id="paint0_linear_1772_1986" x1="263.724" y1="521.137" x2="560.432" y2="157.564" gradientUnits="userSpaceOnUse">
                <stop offset="0.19" stop-color="#2C7CF9"/>
                <stop offset="1" stop-color="#A4CDED"/>
                </linearGradient>
                </defs>
              </svg>