<!DOCTYPE svg PUBLIC "-//W3C//DTD SVG 1.1//EN" "http://www.w3.org/Graphics/SVG/1.1/DTD/svg11.dtd">
<!-- Uploaded to: SVG Repo, www.svgrepo.com, Transformed by: SVG Repo Mixer Tools -->
<svg fill="#4dd25d" width="64px" height="64px" viewBox="0 0 24.00 24.00" version="1.2" baseProfile="tiny" xmlns="http://www.w3.org/2000/svg" stroke="#4dd25d" stroke-width="2.4" transform="rotate(0)">
<g id="SVGRepo_bgCarrier" stroke-width="0">
<path transform="translate(0, 0), scale(1.5)" fill="#4dd25d" d="M9.166.33a2.25 2.25 0 00-2.332 0l-5.25 3.182A2.25 2.25 0 00.5 5.436v5.128a2.25 2.25 0 001.084 1.924l5.25 3.182a2.25 2.25 0 002.332 0l5.25-3.182a2.25 2.25 0 001.084-1.924V5.436a2.25 2.25 0 00-1.084-1.924L9.166.33z" strokewidth="0"/>
</g>
<g id="SVGRepo_tracerCarrier" stroke-linecap="round" stroke-linejoin="round"/>
<g id="SVGRepo_iconCarrier">
<path d="M19.064 10.109l1.179-2.387c.074-.149.068-.327-.015-.471-.083-.145-.234-.238-.401-.249l-2.656-.172-.172-2.656c-.011-.167-.104-.317-.249-.401-.145-.084-.322-.09-.472-.015l-2.385 1.18-1.477-2.215c-.186-.278-.646-.278-.832 0l-1.477 2.215-2.385-1.18c-.151-.075-.327-.069-.472.015-.145.083-.238.234-.249.401l-.171 2.656-2.657.171c-.167.011-.318.104-.401.249-.084.145-.089.322-.015.472l1.179 2.386-2.214 1.477c-.139.093-.223.249-.223.416s.083.323.223.416l2.215 1.477-1.18 2.386c-.074.15-.068.327.015.472.083.144.234.238.401.248l2.656.171.171 2.657c.011.167.104.317.249.401.144.083.32.088.472.015l2.386-1.179 1.477 2.214c.093.139.249.223.416.223s.323-.083.416-.223l1.477-2.214 2.386 1.179c.15.073.327.068.472-.015s.238-.234.249-.401l.171-2.656 2.656-.172c.167-.011.317-.104.401-.249.083-.145.089-.322.015-.472l-1.179-2.385 2.214-1.478c.139-.093.223-.249.223-.416s-.083-.323-.223-.416l-2.214-1.475z"/>
</g>
</svg>